<?xml version="1.0" encoding="iso-8859-1"?>
<!-- Generator: Adobe Illustrator 21.0.0, SVG Export Plug-In . SVG Version: 6.00 Build 0)  -->
<svg version="1.1" id="Livello_1" xmlns="http://www.w3.org/2000/svg" xmlns:xlink="http://www.w3.org/1999/xlink" x="0px" y="0px"
	 viewBox="0 0 1000 1000" style="enable-background:new 0 0 1000 1000;" xml:space="preserve">
<g>
	<g>
		<path d="M495.915,339.519l35.322,110.424l35.32-110.424h21.937v135.335h-17.01v-52.703l1.58-52.795l-35.414,105.498h-13.013
			l-35.229-105.126l1.58,52.424v52.703h-17.01V339.519H495.915z"/>
		<path d="M635.525,474.854h-17.01V339.519h17.01V474.854z"/>
		<path d="M706.261,420.106h-23.795v54.748h-17.104V339.519h37.924c13.26,0,23.299,3.455,30.116,10.364
			c6.815,6.91,10.224,17.026,10.224,30.348c0,8.366-1.844,15.662-5.53,21.89c-3.688,6.228-8.908,10.922-15.662,14.082l26.212,57.536
			v1.115h-18.311L706.261,420.106z M682.466,405.513h20.635c7.125,0,12.811-2.296,17.056-6.89c4.244-4.594,6.367-10.74,6.367-18.439
			c0-17.382-7.87-26.072-23.609-26.072h-20.448V405.513z"/>
		<path d="M784.152,474.854h-17.01V339.519h17.01V474.854z"/>
		<path d="M902.013,419.084c0,18.467-3.936,32.688-11.805,42.664c-7.87,9.978-19.055,14.965-33.555,14.965
			c-13.942,0-24.957-4.848-33.043-14.546c-8.087-9.697-12.286-23.408-12.595-41.13v-25.468c0-18.093,3.996-32.268,11.99-42.524
			c7.993-10.255,19.147-15.383,33.462-15.383c14.252,0,25.359,4.912,33.322,14.732c7.962,9.822,12.037,23.842,12.223,42.06V419.084z
			 M885.003,395.382c0-14.314-2.339-24.957-7.018-31.928c-4.68-6.971-11.851-10.457-21.518-10.457
			c-9.357,0-16.438,3.532-21.239,10.597c-4.803,7.064-7.235,17.474-7.297,31.231v24.26c0,13.819,2.401,24.353,7.204,31.603
			c4.802,7.25,11.975,10.875,21.518,10.875c9.542,0,16.606-3.346,21.192-10.039s6.972-16.947,7.157-30.766V395.382z"/>
		<path d="M514.877,583.244h-23.796v54.747h-17.103V502.656h37.924c13.26,0,23.299,3.455,30.116,10.364
			c6.815,6.91,10.224,17.025,10.224,30.348c0,8.365-1.844,15.662-5.53,21.89c-3.688,6.228-8.908,10.922-15.662,14.082l26.212,57.536
			v1.115h-18.311L514.877,583.244z M491.081,568.65h20.635c7.126,0,12.812-2.296,17.057-6.89c4.244-4.594,6.367-10.74,6.367-18.438
			c0-17.382-7.87-26.073-23.609-26.073h-20.449V568.65z"/>
		<path d="M638.128,602.577h-45.731l-10.503,35.414h-17.475l43.593-135.335h14.594l43.687,135.335h-17.475L638.128,602.577z
			 M596.858,587.984h36.901l-18.497-61.533L596.858,587.984z"/>
		<path d="M697.495,502.656l35.321,110.425l35.32-110.425h21.937v135.335h-17.01v-52.702l1.58-52.796l-35.414,105.498h-13.013
			l-35.229-105.126l1.58,52.424v52.702h-17.01V502.656H697.495z"/>
		<path d="M875.001,602.577H829.27l-10.503,35.414h-17.475l43.593-135.335h14.594l43.687,135.335H885.69L875.001,602.577z
			 M833.731,587.984h36.901l-18.497-61.533L833.731,587.984z"/>
	</g>
	<g>
		<defs>
			<rect id="SVGID_1_" x="134.006" y="346.556" width="284.517" height="284.517"/>
		</defs>
		<clipPath id="SVGID_2_">
			<use xlink:href="#SVGID_1_"  style="overflow:visible;"/>
		</clipPath>
		<g style="clip-path:url(#SVGID_2_);">
			<path style="fill:none;stroke:#231F20;stroke-width:14;stroke-miterlimit:10;" d="M-0.098,362.381l17.028,14.882
				c17.028,14.882,51.083,44.647,85.139,68.482c34.056,23.836,68.111,41.743,102.167,36.106s68.111-34.817,102.167,4.484
				S374.513,633.42,408.568,630.24c34.056-3.18,68.111-117.323,85.139-174.394l17.028-57.071v420.204h-17.028
				c-17.028,0-51.083,0-85.139,0c-34.056,0-68.111,0-102.167,0s-68.111,0-102.167,0s-68.111,0-102.167,0s-68.111,0-85.139,0H-0.098
				V362.381z"/>
			<path style="fill:none;stroke:#231F20;stroke-width:14;stroke-miterlimit:10;" d="M-0.098,407.213l17.028,30.452
				c17.028,30.452,51.083,91.355,85.139,114.212c34.056,22.857,68.111,14.059,102.167-9.562
				c34.056-23.621,68.111-55.674,102.167-34.607c34.056,21.067,68.111,92.059,102.167,76.194
				c34.056-15.865,68.111-118.586,85.139-171.545l17.028-52.959v459.581h-17.028c-17.028,0-51.083,0-85.139,0
				c-34.056,0-68.111,0-102.167,0s-68.111,0-102.167,0s-68.111,0-102.167,0s-68.111,0-85.139,0H-0.098V407.213z"/>
			<path style="fill:none;stroke:#231F20;stroke-width:14;stroke-miterlimit:10;" d="M-0.098,478.94l17.028,50.311
				c17.028,50.311,51.083,150.932,85.139,172.54c34.056,21.608,68.111-35.797,102.167-82.358
				c34.056-46.561,68.111-82.277,102.167-84.467c34.056-2.19,68.111,29.146,102.167-2.898
				c34.056-32.045,68.111-127.47,85.139-175.183l17.028-47.713v509.807h-17.028c-17.028,0-51.083,0-85.139,0
				c-34.056,0-68.111,0-102.167,0s-68.111,0-102.167,0s-68.111,0-102.167,0s-68.111,0-85.139,0H-0.098V478.94z"/>
		</g>
		<use xlink:href="#SVGID_1_"  style="overflow:visible;fill:none;stroke:#231F20;stroke-width:14;stroke-miterlimit:10;"/>
	</g>
</g>
</svg>
