<?xml version="1.0" encoding="utf-8"?>
<!-- Generator: Adobe Illustrator 23.0.0, SVG Export Plug-In . SVG Version: 6.00 Build 0)  -->
<svg version="1.1" id="Livello_1" xmlns="http://www.w3.org/2000/svg" xmlns:xlink="http://www.w3.org/1999/xlink" x="0px" y="0px"
	 viewBox="0 0 1000 736.5" style="enable-background:new 0 0 1000 736.5;" xml:space="preserve">
<style type="text/css">
	.st0{fill:#FFFFFF;}
</style>
<g>
	<g transform="translate(0.000000,511.000000) scale(0.100000,-0.100000)">
		<path class="st0" d="M1263.1,4991.5c-465.2-26.9-813.1-253.7-1016.8-665.1c-123-248-119.2-107.6-113.4-2979.4l5.8-2610.3
			l51.9-144.2c124.9-340.2,403.7-617,742-734.3l128.8-44.2h3979h3979l132.6,51.9c349.8,142.2,601.6,397.9,726.6,745.8l44.2,125
			l5.8,2610.3c5.8,2871.8,9.6,2733.4-113.4,2983.3c-155.7,317.2-438.3,545.9-782.3,634.3c-109.6,28.8-486.3,32.7-3844.4,34.6
			C3141.1,5001.1,1374.6,4997.2,1263.1,4991.5z M8450.2,4076.5c-1.9-26.9-3337-2379.7-3367.7-2377.8
			c-26.9,2-3165.9,2364.3-3165.9,2383.6c0,3.8,1470.5,7.7,3267.7,7.7C6981.6,4090,8452.1,4084.2,8450.2,4076.5z M3054.6,2062
			C4152.2,1231.6,5057.5,553.1,5067.1,553.1c11.5,0,899.6,626.7,1976,1389.8l1956.8,1391.7l5.8-2222.1
			c3.8-2122.1,1.9-2224-30.8-2268.2c-19.2-26.9-59.6-65.4-88.4-86.5l-51.9-40.4h-3804h-3804l-51.9,40.4
			c-28.8,21.1-71.1,63.4-92.3,92.3c-40.4,51.9-40.4,63.4-46.1,2387.4c-1.9,1284,1.9,2333.6,9.6,2333.6
			C1055.5,3571,1958.9,2892.4,3054.6,2062z"/>
	</g>
</g>
</svg>
