<svg id="Layer_1" data-name="Layer 1" xmlns="http://www.w3.org/2000/svg" viewBox="0 0 298.52 298.52"><defs><style>.cls-1{fill:none;stroke:#231f20;stroke-miterlimit:10;stroke-width:14px;}</style></defs><title>logo-miriorama</title><path class="cls-1" d="M425.47,371.19c.08-1.17.12-2.34.12-3.52V315.16" transform="translate(-134.07 -133.74)"/><path class="cls-1" d="M397.85,416.93a57.52,57.52,0,0,0,27.62-45.74" transform="translate(-134.07 -133.74)"/><path class="cls-1" d="M397.85,416.93A57.28,57.28,0,0,1,368,425.26H202.92" transform="translate(-134.07 -133.74)"/><path class="cls-1" d="M141.07,358.73v8.94a57.59,57.59,0,0,0,57.59,57.59h4.26" transform="translate(-134.07 -133.74)"/><path class="cls-1" d="M141.07,260V198.33a57.59,57.59,0,0,1,57.59-57.59H368a57.58,57.58,0,0,1,57.58,57.59V315.16" transform="translate(-134.07 -133.74)"/><line class="cls-1" x1="7" y1="224.99" x2="7" y2="126.27"/><path class="cls-1" d="M397.85,416.93c-16.77-15-33.54-50-50.31-82.38" transform="translate(-134.07 -133.74)"/><path class="cls-1" d="M141.07,260c23.41,12.65,46.82,19.9,70.23,16,34.06-5.64,68.12-34.82,102.17,4.48,10.71,12.36,23.36,33.72,34.07,54" transform="translate(-134.07 -133.74)"/><path class="cls-1" d="M425.47,371.19a39.18,39.18,0,0,1-9.83,6.9c-22.7,10.57-45.4-17.44-68.1-43.54" transform="translate(-134.07 -133.74)"/><path class="cls-1" d="M141.07,358.73c23.41,3.24,46.82-6,70.23-22.23,34.06-23.62,68.12-55.67,102.17-34.61,10.71,6.62,23.36,20.42,34.07,32.66" transform="translate(-134.07 -133.74)"/><path class="cls-1" d="M347.54,334.55c-11.05-3-23-6.11-34.07-5.4-34.05,2.19-68.11,37.91-102.17,84.47-2.79,3.82-5.59,7.72-8.38,11.64" transform="translate(-134.07 -133.74)"/><path class="cls-1" d="M425.59,315.16a98.8,98.8,0,0,1-9.95,11.09c-22.7,21.36-45.4,14.56-68.1,8.3" transform="translate(-134.07 -133.74)"/></svg>